<?xml version="1.0" standalone="no"?>
<!DOCTYPE svg PUBLIC "-//W3C//DTD SVG 20010904//EN"
 "http://www.w3.org/TR/2001/REC-SVG-20010904/DTD/svg10.dtd">
<svg version="1.0" xmlns="http://www.w3.org/2000/svg"
 width="700.000000pt" height="700.000000pt" viewBox="0 0 700.000000 700.000000"
 preserveAspectRatio="xMidYMid meet">
<metadata>
Created by potrace 1.11, written by Peter Selinger 2001-2013
</metadata>
<g transform="translate(0.000000,700.000000) scale(0.100000,-0.100000)"
fill="#000000" stroke="none">
<path d="M5281 6820 c-34 -8 -61 -38 -62 -67 0 -16 -1 -506 -1 -1091 l0 -1063
-28 23 c-289 239 -507 373 -779 478 -181 71 -440 137 -598 154 -29 3 -75 9
-101 12 -72 8 -355 9 -447 0 -499 -45 -962 -227 -1350 -531 -404 -317 -697
-735 -856 -1221 -22 -67 -41 -130 -43 -140 -2 -11 -9 -37 -14 -59 -6 -22 -13
-57 -16 -79 -4 -21 -8 -41 -10 -45 -3 -4 -8 -34 -11 -66 -4 -33 -9 -69 -11
-79 -23 -124 -23 -527 0 -654 2 -9 9 -51 16 -92 63 -390 228 -773 479 -1110
92 -125 322 -362 440 -455 183 -144 395 -271 604 -359 94 -40 325 -117 390
-130 28 -6 115 -24 143 -30 12 -2 45 -7 75 -11 30 -4 56 -8 59 -10 8 -5 246
-18 325 -19 69 0 256 11 305 18 14 2 50 7 80 11 30 4 57 8 60 10 3 2 25 6 50
10 207 31 542 157 779 292 47 27 252 163 261 173 3 3 18 16 34 28 29 22 29 22
487 22 323 0 465 3 483 11 15 7 29 25 35 43 6 19 9 1169 8 3008 l-2 2977 -23
23 c-22 23 -22 23 -381 23 -197 0 -368 -2 -380 -5z m-1611 -2994 c14 -3 41 -7
60 -10 50 -6 186 -42 246 -65 476 -183 801 -565 905 -1061 23 -113 34 -359 19
-441 -4 -24 -11 -63 -14 -86 -13 -102 -70 -271 -129 -389 -116 -230 -318 -448
-538 -581 -124 -75 -325 -155 -445 -177 -26 -5 -123 -19 -154 -22 -39 -4 -252
-4 -280 0 -14 2 -47 7 -75 10 -146 19 -405 114 -530 195 -438 284 -677 719
-676 1231 1 52 3 104 5 115 2 11 7 45 10 76 4 31 11 71 16 88 5 17 9 35 10 39
3 24 25 96 47 157 72 193 171 351 312 498 63 65 209 188 234 196 7 2 19 9 27
16 56 47 323 164 408 179 15 2 48 9 74 15 25 6 70 14 100 17 29 3 54 7 56 9 5
4 288 -3 312 -9z"/>
</g>
</svg>
