<?xml version="1.0" standalone="no"?>
<!DOCTYPE svg PUBLIC "-//W3C//DTD SVG 20010904//EN"
 "http://www.w3.org/TR/2001/REC-SVG-20010904/DTD/svg10.dtd">
<svg version="1.0" xmlns="http://www.w3.org/2000/svg"
 width="1280.000000pt" height="1280.000000pt" viewBox="0 0 1280.000000 1280.000000"
 preserveAspectRatio="xMidYMid meet">
<metadata>
Created by potrace 1.11, written by Peter Selinger 2001-2013
</metadata>
<g transform="translate(0.000000,1280.000000) scale(0.100000,-0.100000)"
fill="#000000" stroke="none">
<path d="M10278 12795 c-1 -1 -21 -5 -43 -9 -54 -8 -75 -12 -106 -24 -15 -6
-30 -8 -33 -5 -3 4 -6 1 -6 -5 0 -7 -7 -12 -15 -12 -20 0 -98 -39 -107 -54 -4
-6 -8 -7 -8 -3 0 22 -135 -97 -182 -161 -59 -80 -119 -200 -134 -267 -1 -5
-10 -41 -19 -80 -15 -63 -19 -95 -28 -212 -1 -18 1 -33 6 -33 4 0 5 -5 2 -10
-9 -15 -10 -104 -2 -117 4 -7 3 -14 -3 -18 -7 -4 -7 -12 0 -25 7 -13 7 -21 0
-25 -6 -4 -7 -12 -1 -23 5 -9 5 -26 0 -39 -5 -14 -5 -23 1 -23 6 0 6 -9 1 -23
-5 -13 -5 -30 0 -39 6 -11 5 -19 -1 -23 -7 -4 -7 -12 0 -25 7 -13 7 -21 0 -25
-7 -4 -7 -12 0 -25 6 -10 7 -21 2 -24 -8 -5 -7 -80 2 -103 3 -7 1 -13 -4 -13
-6 0 -6 -9 0 -25 5 -14 6 -25 2 -25 -8 0 -7 -124 2 -138 4 -6 2 -13 -4 -17 -6
-4 -7 -13 -1 -23 6 -11 6 -24 0 -34 -6 -11 -6 -19 1 -23 7 -4 7 -12 0 -25 -7
-13 -7 -21 0 -25 6 -4 7 -12 1 -23 -5 -9 -5 -26 0 -39 5 -14 5 -23 -1 -23 -6
0 -6 -9 0 -25 6 -15 6 -26 0 -30 -7 -4 -6 -13 0 -25 6 -10 7 -21 2 -24 -8 -5
-7 -80 2 -103 3 -7 1 -13 -4 -13 -6 0 -6 -9 0 -25 6 -16 6 -25 0 -25 -6 0 -6
-9 0 -25 5 -13 6 -26 2 -29 -9 -5 -7 -70 2 -85 4 -5 2 -12 -4 -16 -7 -4 -7
-12 0 -25 7 -13 7 -21 0 -25 -6 -4 -7 -12 -1 -23 5 -9 5 -26 0 -39 -5 -14 -5
-23 1 -23 6 0 6 -9 1 -23 -5 -13 -5 -30 0 -39 6 -11 5 -19 -1 -23 -7 -4 -7
-12 0 -25 7 -13 7 -21 0 -25 -7 -4 -7 -12 0 -25 6 -10 7 -21 2 -24 -8 -5 -7
-80 2 -103 3 -7 1 -13 -4 -13 -6 0 -6 -9 0 -25 5 -14 6 -25 2 -25 -8 0 -7
-124 2 -138 4 -6 2 -13 -4 -17 -6 -4 -7 -13 -1 -23 6 -11 6 -24 0 -34 -6 -11
-6 -19 1 -23 7 -4 7 -12 0 -25 -7 -13 -7 -21 0 -25 6 -4 7 -12 1 -23 -5 -9 -5
-26 0 -39 5 -14 5 -23 -1 -23 -6 0 -6 -9 0 -25 6 -15 6 -26 0 -30 -7 -4 -6
-13 0 -25 6 -10 7 -21 2 -24 -8 -5 -7 -80 2 -103 3 -7 1 -13 -4 -13 -6 0 -6
-9 0 -25 6 -16 6 -25 0 -25 -6 0 -6 -9 0 -25 5 -13 6 -26 2 -29 -9 -5 -7 -70
2 -85 4 -5 2 -12 -4 -16 -7 -4 -7 -12 0 -25 7 -13 7 -21 0 -25 -6 -4 -7 -12
-1 -23 5 -9 5 -26 0 -39 -5 -14 -5 -23 1 -23 6 0 6 -9 1 -23 -5 -13 -5 -30 0
-39 6 -11 5 -19 -1 -23 -7 -4 -7 -12 0 -25 7 -13 7 -21 0 -25 -7 -4 -7 -12 0
-25 6 -10 7 -21 2 -24 -8 -5 -6 -95 2 -104 3 -2 1 -15 -4 -28 -6 -15 -6 -24 0
-24 6 0 6 -9 0 -25 -6 -15 -6 -26 1 -30 5 -4 7 -11 3 -16 -8 -13 -11 -79 -4
-79 3 0 5 -13 5 -30 0 -16 -3 -30 -7 -30 -4 0 -3 -11 2 -25 6 -16 6 -25 0 -25
-6 0 -6 -9 0 -25 5 -13 6 -27 1 -29 -5 -3 -6 -18 -3 -33 l5 -28 -24 20 c-13
11 -34 29 -45 40 -12 11 -41 36 -64 54 -23 19 -48 41 -56 48 -7 7 -17 13 -23
13 -5 0 -14 6 -18 13 -4 6 -26 25 -48 42 -22 16 -41 33 -43 37 -2 4 -8 8 -13
8 -6 0 -15 5 -22 10 -45 38 -61 50 -67 50 -3 0 -15 8 -26 18 -10 9 -44 33 -74
53 -30 20 -87 57 -126 83 -39 25 -76 46 -83 46 -6 0 -11 5 -11 10 0 6 -4 10
-10 10 -13 0 -113 61 -122 74 -4 6 -8 8 -8 4 0 -4 -33 11 -72 33 -61 33 -169
87 -188 94 -5 2 -36 16 -173 79 -43 20 -83 34 -88 31 -5 -4 -9 -2 -9 3 0 5
-10 13 -22 17 -31 10 -37 12 -43 15 -3 1 -8 3 -12 5 -5 1 -21 7 -36 13 -16 7
-34 12 -41 12 -6 0 -16 4 -22 8 -10 9 -128 50 -159 55 -19 4 -34 9 -72 24 -10
4 -22 8 -28 9 -5 1 -13 3 -17 4 -5 1 -11 3 -15 4 -5 1 -14 5 -20 9 -7 5 -13 6
-13 3 0 -2 -15 0 -32 5 -18 6 -40 12 -48 14 -8 1 -44 11 -80 20 -36 9 -74 19
-85 20 -11 2 -31 6 -45 9 -14 3 -36 8 -50 11 -14 3 -36 8 -50 11 -14 3 -39 7
-55 9 -17 1 -44 5 -60 9 -57 12 -78 15 -116 18 -22 1 -39 4 -39 7 0 4 -30 8
-68 9 -101 5 -112 7 -112 12 0 3 -33 6 -73 7 -213 6 -263 9 -274 16 -7 5 -13
4 -13 -1 0 -5 -12 -7 -27 -5 -16 2 -35 4 -43 4 -8 -1 -28 -1 -45 0 -35 0 -22
1 -160 -6 -126 -5 -240 -13 -240 -15 0 -1 -26 -3 -57 -5 -32 -2 -74 -6 -95
-10 -21 -3 -51 -8 -68 -10 -56 -7 -110 -15 -135 -20 -14 -4 -44 -8 -68 -10
-24 -3 -46 -6 -50 -9 -4 -2 -25 -7 -47 -10 -22 -4 -67 -13 -100 -21 -33 -9
-73 -18 -88 -21 -16 -3 -49 -12 -75 -19 -25 -8 -49 -12 -53 -9 -4 2 -10 0 -14
-6 -4 -6 -11 -8 -16 -5 -5 4 -9 2 -9 -4 0 -5 -8 -8 -18 -6 -9 1 -22 -1 -27 -6
-6 -4 -22 -10 -35 -12 -36 -7 -267 -85 -317 -108 -24 -10 -45 -19 -47 -19 -3
0 -17 -5 -33 -12 -15 -6 -33 -12 -39 -13 -7 -2 -46 -19 -89 -39 -42 -20 -79
-36 -81 -36 -9 0 -165 -79 -179 -90 -8 -7 -15 -10 -15 -6 0 3 -18 -5 -40 -19
-22 -14 -40 -23 -40 -20 0 3 -17 -6 -37 -20 -21 -14 -41 -25 -46 -25 -4 0 -26
-12 -50 -27 -55 -36 -75 -48 -114 -68 -18 -9 -37 -23 -44 -31 -6 -8 -17 -14
-23 -14 -7 0 -21 -8 -32 -17 -10 -10 -31 -24 -46 -32 -15 -8 -36 -21 -45 -30
-10 -9 -51 -38 -90 -65 -40 -27 -81 -57 -92 -67 -11 -11 -24 -19 -30 -19 -5 0
-11 -3 -13 -8 -1 -4 -23 -23 -48 -42 -25 -19 -51 -39 -58 -45 -7 -5 -21 -17
-30 -25 -9 -9 -48 -43 -87 -75 -80 -69 -83 -72 -196 -181 -145 -140 -288 -297
-390 -426 -28 -35 -57 -72 -66 -83 -72 -87 -283 -396 -283 -415 0 -6 -4 -10
-8 -10 -5 0 -15 -12 -23 -27 -8 -16 -34 -62 -58 -103 -41 -70 -201 -384 -201
-394 0 -3 -13 -33 -29 -68 -35 -76 -108 -263 -145 -373 -15 -44 -30 -87 -33
-95 -3 -8 -7 -19 -8 -25 -1 -5 -3 -12 -4 -15 -3 -6 -7 -24 -15 -60 -3 -14 -10
-36 -16 -50 -5 -14 -24 -81 -40 -150 -30 -119 -35 -140 -44 -192 -2 -13 -7
-36 -11 -53 -4 -16 -8 -48 -10 -70 -2 -22 -4 -40 -5 -40 -4 0 -18 -81 -24
-140 -2 -22 -7 -56 -10 -75 -6 -36 -13 -113 -23 -240 -9 -105 -9 -575 0 -690
7 -93 11 -129 23 -220 3 -25 8 -65 11 -90 6 -60 9 -80 16 -110 3 -14 9 -43 12
-65 2 -22 8 -56 11 -75 3 -19 7 -39 8 -45 1 -5 5 -16 9 -22 5 -7 6 -13 4 -13
-3 0 -1 -17 4 -37 6 -21 12 -51 15 -68 3 -16 13 -55 21 -85 8 -30 18 -68 23
-85 4 -16 15 -52 24 -80 8 -27 16 -51 16 -52 0 -2 0 -4 1 -5 0 -2 2 -10 4 -18
14 -61 123 -363 145 -402 6 -10 10 -25 10 -33 0 -8 5 -15 12 -15 6 0 8 -3 5
-6 -4 -4 0 -19 7 -33 8 -14 22 -44 31 -66 32 -73 145 -295 190 -374 25 -43 45
-83 45 -89 0 -7 5 -12 10 -12 6 0 14 -11 19 -23 13 -33 170 -271 182 -275 5
-2 7 -8 3 -13 -3 -5 -1 -9 3 -9 5 0 19 -18 33 -40 14 -22 28 -40 32 -40 5 0 8
-5 8 -12 0 -6 7 -18 15 -27 9 -9 47 -56 85 -105 39 -49 81 -99 94 -111 13 -12
25 -27 27 -33 6 -16 177 -199 273 -291 44 -42 98 -94 121 -116 23 -22 59 -54
81 -72 21 -17 55 -46 74 -63 19 -17 60 -50 90 -73 30 -23 59 -48 63 -54 4 -7
15 -13 22 -13 8 0 15 -4 15 -9 0 -5 17 -20 38 -32 20 -13 42 -27 47 -31 6 -4
24 -18 40 -31 45 -35 253 -170 315 -204 30 -17 91 -52 135 -77 44 -25 85 -46
92 -46 6 0 13 -3 15 -7 3 -8 189 -103 201 -103 3 0 38 -15 76 -34 38 -19 72
-31 75 -28 3 3 6 0 6 -6 0 -7 3 -11 8 -10 9 2 17 -2 142 -52 30 -12 59 -23 65
-25 5 -1 17 -5 25 -8 27 -11 144 -49 162 -52 9 -2 25 -8 35 -13 10 -6 21 -10
26 -11 4 -1 8 -1 10 -2 1 0 9 -2 17 -4 8 -1 42 -10 75 -20 82 -22 214 -55 248
-60 15 -2 33 -7 39 -11 6 -4 25 -9 42 -10 17 -2 42 -5 56 -8 30 -7 98 -18 125
-21 11 -1 27 -5 35 -8 8 -3 22 -5 30 -5 14 0 39 -3 140 -16 99 -13 129 -16
220 -23 116 -8 587 -9 690 0 129 10 204 17 240 23 19 3 53 8 75 10 59 6 140
20 140 24 0 1 18 3 40 5 22 2 51 6 65 9 14 3 36 8 50 11 25 5 128 27 143 31 4
1 8 2 10 3 1 2 13 5 27 7 14 3 43 10 65 16 22 6 49 12 60 14 11 1 39 9 63 18
23 8 44 16 47 16 16 2 284 89 310 100 89 38 114 47 119 42 3 -3 6 0 6 6 0 7 7
12 16 12 8 0 39 11 67 24 29 13 55 24 60 25 4 0 22 8 40 18 17 9 34 18 37 18
3 1 49 24 103 51 54 27 124 62 155 78 31 15 59 31 62 35 3 4 21 15 40 24 19
10 49 26 65 37 17 11 44 26 62 35 18 9 37 23 44 31 6 8 17 14 23 14 7 0 21 8
32 18 11 9 32 24 46 32 14 8 36 23 49 33 40 29 170 121 187 132 9 6 26 20 38
33 11 12 26 22 33 22 6 0 11 4 11 8 0 4 12 15 28 24 15 9 44 33 65 52 20 20
37 34 37 32 0 -3 17 12 39 32 21 20 58 54 82 75 148 130 381 376 510 539 28
35 57 72 66 83 72 87 283 396 283 415 0 6 4 10 8 10 5 0 17 17 29 38 11 20 48
86 82 147 33 60 61 115 61 121 0 7 4 14 8 16 7 3 102 192 102 202 0 3 18 44
40 91 22 48 42 95 43 105 2 10 9 25 16 34 7 9 11 16 8 16 -4 0 3 21 14 48 20
46 50 134 50 149 0 5 7 18 15 30 8 13 12 23 9 23 -3 0 -1 9 5 21 7 11 14 33
17 47 7 36 9 44 16 62 20 47 116 456 122 520 1 14 7 50 13 80 6 30 14 80 17
110 4 30 8 69 11 85 2 17 6 57 10 90 3 33 8 80 12 105 3 25 6 1753 8 3840 3
3651 2 3798 -16 3880 -10 47 -16 88 -13 93 2 4 -1 7 -6 7 -6 0 -11 11 -11 25
0 14 -5 25 -11 25 -5 0 -8 4 -5 9 8 12 -63 147 -111 211 -60 81 -179 178 -253
206 -85 32 -119 44 -140 48 -14 3 -36 8 -50 11 -26 7 -295 16 -302 10z m-3578
-4808 c152 -18 183 -22 260 -37 30 -6 66 -13 80 -15 14 -2 36 -7 50 -10 14 -4
34 -8 45 -10 11 -3 38 -9 60 -15 22 -6 46 -12 53 -12 6 -1 12 -5 12 -10 0 -5
4 -7 9 -3 9 5 219 -61 291 -92 19 -8 46 -20 60 -25 14 -6 33 -14 42 -19 10 -5
25 -9 33 -9 8 0 15 -4 15 -10 0 -5 5 -10 11 -10 16 0 182 -83 191 -95 4 -5 8
-7 8 -3 0 8 62 -27 157 -89 28 -18 54 -33 58 -33 6 0 19 -10 49 -37 8 -7 16
-9 20 -6 3 4 6 2 6 -3 0 -5 18 -20 40 -34 22 -14 40 -28 40 -32 0 -5 5 -8 11
-8 6 0 16 -6 23 -12 7 -7 28 -24 46 -38 40 -30 83 -64 130 -105 58 -50 283
-277 320 -324 19 -23 44 -53 56 -64 11 -12 31 -38 44 -57 13 -19 32 -42 42
-51 10 -9 18 -21 18 -27 0 -6 8 -19 18 -29 19 -19 152 -218 152 -228 0 -3 12
-24 27 -48 107 -168 244 -496 304 -727 11 -41 23 -82 26 -90 3 -8 5 -19 4 -24
-1 -5 3 -21 8 -35 6 -14 13 -42 15 -61 3 -20 7 -47 10 -60 9 -39 16 -82 21
-125 3 -22 7 -54 10 -72 9 -54 16 -143 20 -258 2 -60 4 -112 6 -115 1 -3 0 -9
-1 -15 -6 -30 -5 -65 3 -65 4 0 5 -5 2 -11 -4 -5 -9 -49 -11 -97 -4 -93 -9
-150 -18 -222 -4 -25 -8 -58 -10 -75 -7 -56 -36 -210 -46 -245 -6 -19 -13 -51
-16 -70 -3 -19 -10 -43 -15 -52 -5 -10 -7 -18 -3 -18 3 0 1 -7 -6 -15 -7 -9
-10 -18 -7 -22 4 -3 2 -12 -4 -20 -6 -7 -8 -13 -5 -13 4 0 1 -10 -6 -22 -7
-13 -11 -26 -10 -30 1 -4 -9 -37 -22 -72 -14 -35 -22 -67 -19 -70 4 -3 1 -6
-5 -6 -7 0 -12 -6 -12 -12 0 -7 -6 -25 -14 -39 -14 -28 -30 -80 -28 -91 1 -5
-3 -8 -8 -8 -6 0 -10 -5 -10 -10 0 -12 -99 -214 -136 -280 -59 -103 -98 -165
-106 -168 -4 -2 -8 -9 -8 -16 0 -7 -8 -21 -17 -32 -10 -10 -24 -31 -32 -46 -8
-16 -18 -28 -23 -28 -4 0 -8 -7 -8 -15 0 -9 -7 -18 -15 -21 -8 -4 -15 -11 -15
-18 0 -6 -13 -24 -28 -41 -15 -16 -34 -39 -42 -51 -81 -116 -463 -495 -491
-487 -5 2 -9 -3 -9 -10 0 -6 -12 -20 -28 -29 -15 -10 -66 -46 -114 -80 -101
-73 -182 -126 -288 -186 -69 -39 -218 -115 -230 -117 -3 0 -18 -8 -35 -17 -37
-19 -310 -123 -310 -118 0 1 -13 -4 -30 -10 -42 -17 -206 -61 -280 -76 -11 -2
-42 -8 -70 -14 -49 -10 -88 -17 -150 -25 -16 -3 -48 -7 -70 -10 -68 -10 -177
-18 -242 -19 -35 -1 -63 -5 -63 -9 0 -4 -8 -4 -17 0 -16 8 -53 9 -78 3 -5 -1
-12 -2 -15 0 -3 1 -59 3 -125 5 -122 5 -164 8 -245 19 -25 4 -61 9 -80 11 -34
4 -69 10 -120 20 -59 12 -76 15 -102 20 -15 3 -40 10 -55 16 -15 6 -29 10 -31
10 -10 -4 -84 13 -88 20 -3 5 -14 9 -25 9 -26 0 -243 73 -324 109 -11 5 -38
17 -60 26 -83 36 -270 130 -283 142 -7 7 -24 16 -38 19 -13 3 -24 10 -24 14 0
4 -13 13 -30 20 -16 7 -30 16 -30 21 0 5 -5 9 -12 9 -16 0 -168 102 -168 112
0 4 -5 8 -11 8 -10 0 -33 16 -113 80 -170 135 -442 406 -515 513 -8 12 -17 24
-20 27 -25 22 -219 303 -234 340 -4 8 -18 33 -31 55 -37 60 -121 229 -118 238
1 4 -3 7 -10 7 -6 0 -9 2 -6 6 3 3 -8 33 -24 67 -17 34 -31 67 -32 72 -1 6
-14 42 -28 80 -33 86 -76 221 -82 257 -3 15 -7 32 -11 38 -3 5 -8 18 -10 27
-1 10 -14 74 -28 143 -33 162 -41 216 -53 345 -7 81 -15 262 -15 320 1 17 1
37 0 45 0 24 9 170 16 230 3 30 8 78 11 105 2 28 7 61 9 75 3 14 7 39 10 55 5
30 9 52 22 110 3 17 7 40 7 53 1 12 4 22 7 22 3 0 6 6 7 13 2 31 9 64 14 72 7
12 22 88 19 94 -2 2 3 7 9 11 6 4 13 18 14 31 12 93 155 428 271 634 67 119
240 377 264 395 4 3 14 14 22 26 71 103 424 457 498 498 9 5 25 19 37 30 11
12 27 26 36 31 9 6 47 32 84 58 92 64 199 133 254 165 96 54 250 130 250 124
0 -4 4 -2 8 5 4 6 16 13 27 15 11 1 22 6 25 9 12 15 347 136 400 145 14 3 32
8 40 11 16 7 43 13 73 16 9 1 17 4 17 7 0 4 6 7 13 7 19 1 90 14 109 19 10 3
29 7 43 10 14 2 37 6 52 9 14 2 47 7 72 11 25 3 57 8 71 10 14 3 61 7 105 10
44 3 81 7 83 9 4 4 459 -3 502 -8z"/>
</g>
</svg>
