<?xml version="1.0" encoding="UTF-8" standalone="no"?>
<svg
   xmlns:dc="http://purl.org/dc/elements/1.1/"
   xmlns:cc="http://creativecommons.org/ns#"
   xmlns:rdf="http://www.w3.org/1999/02/22-rdf-syntax-ns#"
   xmlns:svg="http://www.w3.org/2000/svg"
   xmlns="http://www.w3.org/2000/svg"
   xmlns:xlink="http://www.w3.org/1999/xlink"
   xmlns:sodipodi="http://sodipodi.sourceforge.net/DTD/sodipodi-0.dtd"
   xmlns:inkscape="http://www.inkscape.org/namespaces/inkscape"
   version="1.0"
   width="875"
   height="875"
   viewBox="0 0 700 700"
   preserveAspectRatio="xMidYMid meet"
   id="svg4560"
   inkscape:version="0.91 r13725"
   sodipodi:docname="square.svg"
   inkscape:export-filename="/home/vassilis/Source/dodos/favicons/dark.png"
   inkscape:export-xdpi="18"
   inkscape:export-ydpi="18">
  <defs
     id="defs4570" />
  <sodipodi:namedview
     pagecolor="#ffffff"
     bordercolor="#666666"
     borderopacity="1"
     objecttolerance="10"
     gridtolerance="10"
     guidetolerance="10"
     inkscape:pageopacity="0"
     inkscape:pageshadow="2"
     inkscape:window-width="1879"
     inkscape:window-height="1176"
     id="namedview4568"
     showgrid="false"
     units="px"
     inkscape:zoom="0.78509056"
     inkscape:cx="501.33448"
     inkscape:cy="376.38682"
     inkscape:window-x="41"
     inkscape:window-y="24"
     inkscape:window-maximized="1"
     inkscape:current-layer="svg4560"
     fit-margin-top="0"
     fit-margin-left="0"
     fit-margin-right="0"
     fit-margin-bottom="0" />
  <metadata
     id="metadata4562">
Created by potrace 1.11, written by Peter Selinger 2001-2013
<rdf:RDF>
  <cc:Work
     rdf:about="">
    <dc:format>image/svg+xml</dc:format>
    <dc:type
       rdf:resource="http://purl.org/dc/dcmitype/StillImage" />
    <dc:title></dc:title>
  </cc:Work>
</rdf:RDF>
</metadata>
  <image
     sodipodi:absref="/home/vassilis/Source/dodos.gr/img/crepe.jpg"
     y="-14"
     x="-130"
     id="image4325"
     xlink:href="file:///home/vassilis/Source/dodos.gr/img/crepe.jpg"
     style="image-rendering:optimizeQuality"
     preserveAspectRatio="none"
     height="728"
     width="960" />
  <g
     id="g4335"
     transform="matrix(0.67368437,0,0,0.67368437,114.21047,114.21047)">
    <circle
       r="180.87086"
       cy="350"
       cx="350"
       id="path4333"
       style="opacity:0.7;fill:#ffffff;fill-rule:evenodd;stroke:none;stroke-width:0.80000001px;stroke-linecap:butt;stroke-linejoin:miter;stroke-opacity:1" />
    <path
       inkscape:connector-curvature="0"
       id="path4328"
       d="M 350.00055,156.39167 A 193.60825,193.60825 0 0 0 156.39167,349.99945 193.60825,193.60825 0 0 0 350.00055,543.60833 193.60825,193.60825 0 0 0 543.60833,349.99945 193.60825,193.60825 0 0 0 350.00055,156.39167 Z m 0,24.47068 a 169.13731,169.13731 0 0 1 169.1371,169.1371 169.13731,169.13731 0 0 1 -169.1371,169.13711 169.13731,169.13731 0 0 1 -169.13711,-169.13711 169.13731,169.13731 0 0 1 169.13711,-169.1371 z"
       style="fill:#c0281c;fill-opacity:1;fill-rule:evenodd;stroke:none;stroke-width:0.80000001px;stroke-linecap:butt;stroke-linejoin:miter;stroke-opacity:1" />
    <g
       inkscape:export-ydpi="17.177143"
       inkscape:export-xdpi="17.177143"
       style="fill:#c0281c;stroke:none"
       id="g4564"
       transform="matrix(0.04605433,0,0,-0.04605433,188.71913,511.21318)">
      <path
         style="fill:#c0281c"
         inkscape:connector-curvature="0"
         id="path4566"
         d="m 5281,6820 c -34,-8 -61,-38 -62,-67 0,-16 -1,-506 -1,-1091 l 0,-1063 -28,23 c -289,239 -507,373 -779,478 -181,71 -440,137 -598,154 -29,3 -75,9 -101,12 -72,8 -355,9 -447,0 -499,-45 -962,-227 -1350,-531 -404,-317 -697,-735 -856,-1221 -22,-67 -41,-130 -43,-140 -2,-11 -9,-37 -14,-59 -6,-22 -13,-57 -16,-79 -4,-21 -8,-41 -10,-45 -3,-4 -8,-34 -11,-66 -4,-33 -9,-69 -11,-79 -23,-124 -23,-527 0,-654 2,-9 9,-51 16,-92 63,-390 228,-773 479,-1110 92,-125 322,-362 440,-455 183,-144 395,-271 604,-359 94,-40 325,-117 390,-130 28,-6 115,-24 143,-30 12,-2 45,-7 75,-11 30,-4 56,-8 59,-10 8,-5 246,-18 325,-19 69,0 256,11 305,18 14,2 50,7 80,11 30,4 57,8 60,10 3,2 25,6 50,10 207,31 542,157 779,292 47,27 252,163 261,173 3,3 18,16 34,28 29,22 29,22 487,22 323,0 465,3 483,11 15,7 29,25 35,43 6,19 9,1169 8,3008 l -2,2977 -23,23 c -22,23 -22,23 -381,23 -197,0 -368,-2 -380,-5 z M 3670,3826 c 14,-3 41,-7 60,-10 50,-6 186,-42 246,-65 476,-183 801,-565 905,-1061 23,-113 34,-359 19,-441 -4,-24 -11,-63 -14,-86 -13,-102 -70,-271 -129,-389 -116,-230 -318,-448 -538,-581 -124,-75 -325,-155 -445,-177 -26,-5 -123,-19 -154,-22 -39,-4 -252,-4 -280,0 -14,2 -47,7 -75,10 -146,19 -405,114 -530,195 -438,284 -677,719 -676,1231 1,52 3,104 5,115 2,11 7,45 10,76 4,31 11,71 16,88 5,17 9,35 10,39 3,24 25,96 47,157 72,193 171,351 312,498 63,65 209,188 234,196 7,2 19,9 27,16 56,47 323,164 408,179 15,2 48,9 74,15 25,6 70,14 100,17 29,3 54,7 56,9 5,4 288,-3 312,-9 z" />
    </g>
  </g>
</svg>
