<?xml version="1.0" encoding="UTF-8" standalone="no"?>
<!-- Created with Inkscape (http://www.inkscape.org/) -->

<svg
   xmlns:dc="http://purl.org/dc/elements/1.1/"
   xmlns:cc="http://creativecommons.org/ns#"
   xmlns:rdf="http://www.w3.org/1999/02/22-rdf-syntax-ns#"
   xmlns:svg="http://www.w3.org/2000/svg"
   xmlns="http://www.w3.org/2000/svg"
   xmlns:sodipodi="http://sodipodi.sourceforge.net/DTD/sodipodi-0.dtd"
   xmlns:inkscape="http://www.inkscape.org/namespaces/inkscape"
   id="svg2"
   version="1.1"
   inkscape:version="0.91 r13725"
   width="452.1235"
   height="95.217064"
   viewBox="0 0 452.12351 95.217061"
   sodipodi:docname="logo_dodos.svg">
  <metadata
     id="metadata8">
    <rdf:RDF>
      <cc:Work
         rdf:about="">
        <dc:format>image/svg+xml</dc:format>
        <dc:type
           rdf:resource="http://purl.org/dc/dcmitype/StillImage" />
        <dc:title />
      </cc:Work>
    </rdf:RDF>
  </metadata>
  <defs
     id="defs6" />
  <sodipodi:namedview
     pagecolor="#ffffff"
     bordercolor="#666666"
     borderopacity="1"
     objecttolerance="10"
     gridtolerance="10"
     guidetolerance="10"
     inkscape:pageopacity="0"
     inkscape:pageshadow="2"
     inkscape:window-width="3779"
     inkscape:window-height="2136"
     id="namedview4"
     showgrid="false"
     fit-margin-top="0"
     fit-margin-left="0"
     fit-margin-right="0"
     fit-margin-bottom="0"
     showguides="true"
     inkscape:guide-bbox="true"
     inkscape:zoom="3.8275233"
     inkscape:cx="239.21424"
     inkscape:cy="43.157603"
     inkscape:window-x="61"
     inkscape:window-y="24"
     inkscape:window-maximized="1"
     inkscape:current-layer="svg2" />
  <g
     id="g4138">
    <path
       sodipodi:nodetypes="ccssscccscc"
       inkscape:connector-curvature="0"
       id="rect4481"
       d="M 0,6.6325e-4 0,95.000663 c 0,0 37.877882,0.737216 51.28125,-0.509765 C 87.59064,91.112856 100.97094,70.29768 100.97266,47.500663 100.97456,22.298394 83.131122,0.73920459 51.28125,0.49285075 33.629529,0.35631742 0,6.6325e-4 0,6.6325e-4 Z m 29.746094,12.01439775 13.538906,0 c 24.194501,-0.756605 40.684833,10.17525 40.689609,30.536388 0.0066,28.287676 -25.83814,31.103432 -54.228515,30.541016 z"
       style="color:#000000;clip-rule:nonzero;display:inline;overflow:visible;visibility:visible;opacity:1;isolation:auto;mix-blend-mode:normal;color-interpolation:sRGB;color-interpolation-filters:linearRGB;solid-color:#000000;solid-opacity:1;fill:#000000;fill-opacity:1;fill-rule:nonzero;stroke:none;stroke-width:7.0999999;stroke-linecap:round;stroke-linejoin:round;stroke-miterlimit:4;stroke-dasharray:none;stroke-dashoffset:0;stroke-opacity:1;color-rendering:auto;image-rendering:auto;shape-rendering:auto;text-rendering:auto;enable-background:accumulate" />
    <path
       sodipodi:nodetypes="cccscccccccccc"
       inkscape:connector-curvature="0"
       id="path4476"
       d="m 260.0813,0 0,32.294677 c -6.95859,-7.216308 -16.54448,-11.292548 -26.56055,-11.294431 -20.40006,-9.6e-5 -36.93759,16.56537 -36.9375,36.999876 -9e-5,20.434507 16.53744,36.999972 36.9375,36.999877 9.01275,-0.01413 17.67237,-3.326745 24.37929,-9.254483 1.74743,-0.0062 -0.94112,-0.03657 12.8922,-0.03657 L 270.79224,0 Z m -26.82226,40.235799 c 12.06729,-1.97e-4 21.8498,9.798844 21.8496,21.886508 2e-4,12.087664 -9.78231,21.886704 -21.8496,21.886506 -12.06653,-8.75e-4 -21.84786,-9.799601 -21.84766,-21.886506 -2e-4,-12.086906 9.78113,-21.885632 21.84766,-21.886508 z"
       style="color:#000000;clip-rule:nonzero;display:inline;overflow:visible;visibility:visible;opacity:1;isolation:auto;mix-blend-mode:normal;color-interpolation:sRGB;color-interpolation-filters:linearRGB;solid-color:#000000;solid-opacity:1;fill:#000000;fill-opacity:1;fill-rule:nonzero;stroke:none;stroke-width:7.0999999;stroke-linecap:round;stroke-linejoin:round;stroke-miterlimit:4;stroke-dasharray:none;stroke-dashoffset:0;stroke-opacity:1;color-rendering:auto;image-rendering:auto;shape-rendering:auto;text-rendering:auto;enable-background:accumulate" />
    <path
       inkscape:connector-curvature="0"
       style="color:#000000;clip-rule:nonzero;display:inline;overflow:visible;visibility:visible;opacity:1;isolation:auto;mix-blend-mode:normal;color-interpolation:sRGB;color-interpolation-filters:linearRGB;solid-color:#000000;solid-opacity:1;fill:#000000;fill-opacity:1;fill-rule:nonzero;stroke:none;stroke-width:7.0999999;stroke-linecap:round;stroke-linejoin:round;stroke-miterlimit:4;stroke-dasharray:none;stroke-dashoffset:0;stroke-opacity:1;color-rendering:auto;image-rendering:auto;shape-rendering:auto;text-rendering:auto;enable-background:accumulate"
       d="m 148.77795,21.124999 a 36.937328,36.937328 0 0 0 -36.9375,36.9375 36.937328,36.937328 0 0 0 36.9375,36.9375 36.937328,36.937328 0 0 0 36.9375,-36.9375 36.937328,36.937328 0 0 0 -36.9375,-36.9375 z m -0.26172,10.972657 a 21.849243,21.849243 0 0 1 21.84961,21.849609 21.849243,21.849243 0 0 1 -21.84961,21.849609 21.849243,21.849243 0 0 1 -21.84765,-21.849609 21.849243,21.849243 0 0 1 21.84765,-21.849609 z"
       id="path4474" />
    <path
       inkscape:connector-curvature="0"
       id="path4469"
       d="m 318.59753,21.124999 a 36.937328,36.937328 0 0 0 -36.9375,36.9375 36.937328,36.937328 0 0 0 36.9375,36.9375 36.937328,36.937328 0 0 0 36.9375,-36.9375 36.937328,36.937328 0 0 0 -36.9375,-36.9375 z m -0.26172,10.972657 a 21.849243,21.849243 0 0 1 21.84961,21.849609 21.849243,21.849243 0 0 1 -21.84961,21.849609 21.849243,21.849243 0 0 1 -21.84765,-21.849609 21.849243,21.849243 0 0 1 21.84765,-21.849609 z"
       style="color:#000000;clip-rule:nonzero;display:inline;overflow:visible;visibility:visible;opacity:1;isolation:auto;mix-blend-mode:normal;color-interpolation:sRGB;color-interpolation-filters:linearRGB;solid-color:#000000;solid-opacity:1;fill:#000000;fill-opacity:1;fill-rule:nonzero;stroke:none;stroke-width:7.0999999;stroke-linecap:round;stroke-linejoin:round;stroke-miterlimit:4;stroke-dasharray:none;stroke-dashoffset:0;stroke-opacity:1;color-rendering:auto;image-rendering:auto;shape-rendering:auto;text-rendering:auto;enable-background:accumulate" />
    <path
       sodipodi:nodetypes="ccssccssc"
       inkscape:connector-curvature="0"
       id="path4294"
       d="m 366.40283,71.325061 20.00667,0 c 6.32667,18.752825 45.10176,18.759659 47.40791,1.646296 2.43823,-18.093462 -60.42461,-11.304527 -60.02949,-33.322065 0.41603,-23.183162 66.37516,-25.03412 76.37804,-2.597011 -2.37465,0.374174 -4.03621,0.95171 -6.25006,1.234235 -6.71446,-14.131806 -40.26239,-10.656665 -41.23186,-1.056791 -1.50622,14.914659 49.62685,13.308883 49.43896,33.154004 -0.36353,38.395511 -77.82229,26.696823 -85.72017,0.941332 z"
       style="fill:#000000;fill-opacity:1" />
    <g
       style="fill:#000000"
       transform="translate(-121.62093,21.996267)"
       id="g4144" />
  </g>
</svg>
