<?xml version="1.0" encoding="UTF-8" standalone="no"?>
<!-- Created with Inkscape (http://www.inkscape.org/) -->

<svg
   xmlns:dc="http://purl.org/dc/elements/1.1/"
   xmlns:cc="http://creativecommons.org/ns#"
   xmlns:rdf="http://www.w3.org/1999/02/22-rdf-syntax-ns#"
   xmlns:svg="http://www.w3.org/2000/svg"
   xmlns="http://www.w3.org/2000/svg"
   xmlns:sodipodi="http://sodipodi.sourceforge.net/DTD/sodipodi-0.dtd"
   xmlns:inkscape="http://www.inkscape.org/namespaces/inkscape"
   width="481.67633"
   height="152.78926"
   viewBox="0 0 481.67633 152.78926"
   id="svg3460"
   version="1.1"
   inkscape:version="0.91 r13725"
   sodipodi:docname="dodos-stamp1.svg">
  <defs
     id="defs3462" />
  <sodipodi:namedview
     id="base"
     pagecolor="#ffffff"
     bordercolor="#666666"
     borderopacity="1.0"
     inkscape:pageopacity="0.0"
     inkscape:pageshadow="2"
     inkscape:zoom="2.8"
     inkscape:cx="331.00391"
     inkscape:cy="-31.993536"
     inkscape:document-units="px"
     inkscape:current-layer="layer1"
     showgrid="false"
     units="px"
     inkscape:window-width="3791"
     inkscape:window-height="2136"
     inkscape:window-x="49"
     inkscape:window-y="24"
     inkscape:window-maximized="1"
     showborder="false"
     fit-margin-top="0"
     fit-margin-left="0"
     fit-margin-right="0"
     fit-margin-bottom="0" />
  <metadata
     id="metadata3465">
    <rdf:RDF>
      <cc:Work
         rdf:about="">
        <dc:format>image/svg+xml</dc:format>
        <dc:type
           rdf:resource="http://purl.org/dc/dcmitype/StillImage" />
        <dc:title></dc:title>
      </cc:Work>
    </rdf:RDF>
  </metadata>
  <g
     inkscape:label="Layer 1"
     inkscape:groupmode="layer"
     id="layer1"
     transform="translate(288.34542,-851.56034)">
    <text
       xml:space="preserve"
       style="font-style:normal;font-weight:normal;font-size:127.8395462px;line-height:130.99999428%;font-family:sans-serif;text-align:center;letter-spacing:0px;word-spacing:0px;text-anchor:middle;fill:#000000;fill-opacity:1;stroke:none;stroke-width:1px;stroke-linecap:butt;stroke-linejoin:miter;stroke-opacity:1"
       x="-102.84855"
       y="958.21497"
       id="text4133"
       sodipodi:linespacing="130.99999%"
       transform="matrix(0.99791748,-0.06450352,0.06450352,0.99791748,0,0)"><tspan
         sodipodi:role="line"
         id="tspan4135"
         x="-102.84856"
         y="958.21497"
         style="font-style:normal;font-variant:normal;font-weight:normal;font-stretch:normal;font-family:'Londrina Sketch';-inkscape-font-specification:'Londrina Sketch'">dodos.gr</tspan></text>
    <path
       sodipodi:nodetypes="sccccsccccsccccccscccsssccccssccccsccsccscsscccccs"
       inkscape:connector-curvature="0"
       id="path4152"
       d="m 161.65046,855.81269 c -4.27922,0.0224 -422.92631,2.41275 -426.5451,2.82913 -11.5156,1.09373 -17.25476,5.1793 -17.21771,12.2542 l 0.34421,2.85942 c 0.0117,2.2258 -0.40939,5.68587 -1.2626,10.38057 -0.74394,4.61453 -0.68855,88.56548 -0.66857,92.38117 0.02,3.81559 1.08484,7.98342 3.19331,12.50364 2.21819,4.51955 5.08721,7.60469 8.6071,9.25563 3.51989,1.65086 426.23105,0.27073 438.73956,0.20523 l 6.91283,0.0833 c 5.37645,-0.0282 9.10607,-0.32554 11.18792,-0.89292 2.08181,-0.56739 3.77679,-1.52961 5.08643,-2.88787 0.65499,-0.63937 1.20102,-1.19993 1.63742,-1.67924 0.54571,-0.55935 1.03582,-1.31541 1.46971,-2.2716 0.54321,-1.03636 0.92371,-1.75382 1.14109,-2.15246 0.21735,-0.39856 0.54277,-1.15586 0.97583,-2.27111 l 0.97648,-2.15152 c 1.30129,-2.94814 1.94077,-6.29146 1.9212,-10.02761 -0.02,-3.8156 -0.61588,-86.49056 -0.95588,-88.55566 -0.23026,-2.06559 -0.40641,-4.25137 -0.5282,-6.55604 -0.12221,-2.38421 -0.29563,-4.05228 -0.52009,-5.00501 -0.11513,-1.03284 -0.50728,-2.53988 -1.17603,-4.52373 -0.66877,-1.98391 -1.00624,-3.53316 -1.01207,-4.64601 l -0.004,-0.71481 c -0.002,-0.31788 -0.16762,-0.55698 -0.49762,-0.71432 -0.54863,0.003 -1.04456,-0.35222 -1.48718,-1.06537 -0.33291,-0.71365 -0.66457,-1.14761 -0.99457,-1.30494 -1.8724,-1.34168 -6.15711,-2.55252 -12.85606,-3.63026 -6.58968,-1.15794 -12.07872,-1.72479 -16.46767,-1.70181 z m 11.85961,1.96495 c 0.65833,-0.003 1.86787,0.34791 3.62721,1.05417 1.75891,0.62673 2.96693,1.01807 3.6261,1.17368 0.76847,0.075 1.59232,0.15145 2.47051,0.22598 0.98753,-0.005 1.70156,0.0693 2.14129,0.22577 5.82409,1.63887 8.7613,7.26812 8.81167,16.8867 0.0791,15.1035 -0.16679,104.42073 -1.57197,108.48232 -1.29589,3.98164 -5.44874,6.98549 -12.46063,9.00963 -6.57678,1.3064 -11.89646,1.96971 -15.95622,1.99097 -4.05977,0.0213 -423.478,1.5823 -428.86111,0.33853 -5.38354,-1.3233 -8.68253,-2.65719 -9.89656,-4.00224 -0.44263,-0.71323 -1.16043,-1.50487 -2.15253,-2.37413 -0.99209,-0.86927 -1.70793,-1.62103 -2.15014,-2.25473 -0.99668,-1.74361 -1.51571,-6.50986 -1.5565,-14.30028 l -0.49251,-94.04357 c -0.0192,-3.65671 1.16491,-7.83639 3.55429,-12.53907 0.21779,-0.31911 0.65234,-1.19688 1.30319,-2.63115 0.76057,-1.43492 1.41473,-2.31184 1.96169,-2.63267 2.18905,-1.04499 423.19296,-3.8077 433.61629,-3.94142 4.93715,-0.10485 8.33825,-0.24093 10.2027,-0.40975 1.86447,-0.16916 3.12487,-0.25529 3.78323,-0.25874 z"
       style="font-style:normal;font-variant:normal;font-weight:normal;font-stretch:normal;font-size:medium;line-height:130.99999428%;font-family:'Londrina Sketch';-inkscape-font-specification:'Londrina Sketch';text-align:center;letter-spacing:0px;word-spacing:0px;text-anchor:middle;fill:#0e232e;fill-opacity:1;stroke:none;stroke-width:1px;stroke-linecap:butt;stroke-linejoin:miter;stroke-opacity:1" />
    <path
       style="font-style:normal;font-variant:normal;font-weight:normal;font-stretch:normal;font-size:medium;line-height:130.99999428%;font-family:'Londrina Sketch';-inkscape-font-specification:'Londrina Sketch';text-align:center;letter-spacing:0px;word-spacing:0px;text-anchor:middle;fill:#0e232e;fill-opacity:1;stroke:none;stroke-width:1px;stroke-linecap:butt;stroke-linejoin:miter;stroke-opacity:1"
       d="m -245.23214,1004.1296 c 4.20777,-0.039 415.86351,-4.1144 419.42009,-4.56218 11.31862,-1.18365 16.94357,-5.46469 16.87506,-12.84048 l -0.35144,-2.97976 c -0.0215,-2.32048 0.37681,-5.9292 1.19453,-10.82686 0.7106,-4.81366 0.27567,-92.33563 0.23872,-96.31356 -0.0369,-3.97782 -1.10291,-8.31892 -3.19672,-13.02337 -2.20171,-4.70338 -5.03685,-7.9089 -8.50553,-9.61685 -3.46867,-1.70779 -419.12533,1.32918 -431.42497,1.44476 l -6.79795,-0.0607 c -5.28667,0.0497 -8.95277,0.3738 -10.99732,0.97321 -2.04454,0.59936 -3.7069,1.60891 -4.98852,3.02988 -0.64118,0.6691 -1.17558,1.25552 -1.60253,1.75689 -0.53408,0.58524 -1.01258,1.37533 -1.4349,2.37383 -0.52946,1.08243 -0.90036,1.83184 -1.1123,2.24836 -0.21193,0.4163 -0.52848,1.20705 -0.94927,2.37138 l -0.95045,2.2467 c -1.26623,3.07858 -1.87988,6.56644 -1.8437,10.46147 0.0369,3.97777 0.99757,90.16742 1.34125,92.31901 0.2358,2.15254 0.41892,4.43074 0.54913,6.83297 0.13096,2.48515 0.30908,4.22353 0.53409,5.21588 0.11789,1.07635 0.51033,2.64601 1.17693,4.71181 0.66662,2.06573 1.00548,3.67963 1.01625,4.83976 l 0.007,0.74523 c 0.003,0.33135 0.16736,0.58007 0.49257,0.74278 0.53944,-0.005 1.02872,0.36326 1.46722,1.10506 0.33059,0.74274 0.65866,1.19384 0.98387,1.35679 1.84728,1.39169 6.06602,2.63769 12.65818,3.73609 6.48501,1.1823 11.88512,1.7524 16.2008,1.7118 z m -11.67077,-2.0037 c -0.64735,0.01 -1.83831,-0.3558 -3.57152,-1.0854 -1.73243,-0.6467 -2.92208,-1.05001 -3.57095,-1.20991 -0.75599,-0.0752 -1.56646,-0.15182 -2.43034,-0.22625 -0.97104,0.01 -1.67349,-0.0655 -2.10661,-0.22722 -5.73441,-1.68656 -8.64817,-7.54417 -8.7413,-17.57171 -0.14623,-15.74572 -0.30921,-108.86335 1.05414,-113.10291 1.25621,-4.15593 5.32621,-7.30324 12.21202,-9.44009 6.46119,-1.38676 11.68917,-2.09846 15.68113,-2.13596 3.992,-0.0376 416.40978,-3.25049 421.70877,-1.97426 5.29977,1.35928 8.5498,2.73738 9.74969,4.13509 0.43849,0.74197 1.14789,1.56454 2.12739,2.46702 0.97949,0.90242 1.6868,1.68354 2.12451,2.34258 0.98797,1.81394 1.51992,6.7809 1.59535,14.90262 l 0.91052,98.04221 c 0.0353,3.81212 -1.10998,8.17409 -3.43819,13.08587 -0.21271,0.33353 -0.63604,1.25031 -1.26954,2.74809 -0.74138,1.49873 -1.38066,2.41548 -1.91706,2.75197 -2.1478,1.09776 -416.11937,5.56966 -426.36832,5.74836 -4.85435,0.1273 -8.19812,0.2827 -10.03073,0.4659 -1.8326,0.1834 -3.07161,0.278 -3.71896,0.284 z"
       id="path4163"
       inkscape:connector-curvature="0"
       sodipodi:nodetypes="sccccsccccsccccccscccsssccccssccccsccsccscsscccccs" />
  </g>
</svg>
