<?xml version="1.0" encoding="UTF-8" standalone="no"?>
<!-- Created with Inkscape (http://www.inkscape.org/) -->

<svg
   xmlns:dc="http://purl.org/dc/elements/1.1/"
   xmlns:cc="http://creativecommons.org/ns#"
   xmlns:rdf="http://www.w3.org/1999/02/22-rdf-syntax-ns#"
   xmlns:svg="http://www.w3.org/2000/svg"
   xmlns="http://www.w3.org/2000/svg"
   xmlns:sodipodi="http://sodipodi.sourceforge.net/DTD/sodipodi-0.dtd"
   xmlns:inkscape="http://www.inkscape.org/namespaces/inkscape"
   width="660"
   height="160"
   viewBox="0 0 660 160"
   id="svg3460"
   version="1.1"
   inkscape:version="0.91 r13725"
   sodipodi:docname="drawing.inkscape.svg">
  <defs
     id="defs3462" />
  <sodipodi:namedview
     id="base"
     pagecolor="#ffffff"
     bordercolor="#666666"
     borderopacity="1.0"
     inkscape:pageopacity="0.0"
     inkscape:pageshadow="2"
     inkscape:zoom="1.4142136"
     inkscape:cx="434.84822"
     inkscape:cy="37.541442"
     inkscape:document-units="px"
     inkscape:current-layer="g4456"
     showgrid="true"
     units="px"
     inkscape:window-width="1875"
     inkscape:window-height="1176"
     inkscape:window-x="45"
     inkscape:window-y="24"
     inkscape:window-maximized="1"
     showborder="false"
     showguides="true"
     inkscape:guide-bbox="true"
     inkscape:showpageshadow="true"
     borderlayer="true">
    <inkscape:grid
       type="xygrid"
       id="grid4977" />
  </sodipodi:namedview>
  <metadata
     id="metadata3465">
    <rdf:RDF>
      <cc:Work
         rdf:about="">
        <dc:format>image/svg+xml</dc:format>
        <dc:type
           rdf:resource="http://purl.org/dc/dcmitype/StillImage" />
        <dc:title />
      </cc:Work>
    </rdf:RDF>
  </metadata>
  <g
     inkscape:label="Layer 1"
     inkscape:groupmode="layer"
     id="layer1"
     transform="translate(0,-892.36216)">
    <g
       id="g4456"
       transform="matrix(1.25,0,0,1.25,653.60901,-1035.8935)">
      <g
         style="fill:#000000"
         transform="matrix(1,0,0,-1,316,3245.209)"
         id="g4144">
        <path
           style="color:#000000;clip-rule:nonzero;display:inline;overflow:visible;visibility:visible;opacity:1;isolation:auto;mix-blend-mode:normal;color-interpolation:sRGB;color-interpolation-filters:linearRGB;solid-color:#000000;solid-opacity:1;fill:#000000;fill-opacity:1;fill-rule:nonzero;stroke:none;stroke-width:1;stroke-linecap:round;stroke-linejoin:miter;stroke-miterlimit:4;stroke-dasharray:none;stroke-dashoffset:0;stroke-opacity:1;color-rendering:auto;image-rendering:auto;shape-rendering:auto;text-rendering:auto;enable-background:accumulate"
           d="m 735,40 c -33.13709,0 -60,26.862875 -60,60 0,33.13712 26.86291,60 60,60 15.21828,0 29.1024,-5.67643 39.67969,-15.01367 C 772.22366,164.72274 755.40155,180 735,180 c 0,0 -10,0 -10,10 0,10 10,10 10,10 33.13709,0 60,-26.86287 60,-60 0,0 0,-89.999965 0,-90 0,0 0,-10 -10,-10 -10,0 -10,10 -10,10 l 0,5.289062 C 764.38411,45.784895 750.37015,40 735,40 Z m 0,20 c 22.09139,-2e-6 40,17.908609 40,40 0,22.09139 -17.90861,40 -40,40 -22.09139,0 -40,-17.90861 -40,-40 0,-22.091391 17.90861,-40.000002 40,-40 z"
           transform="matrix(0.8,0,0,-0.8,-838.88721,1702.6045)"
           id="path4165"
           inkscape:connector-curvature="0"
           sodipodi:nodetypes="sssccscccsccssssss" />
      </g>
      <g
         id="g4512"
         style="fill:#000000">
        <path
           style="color:#000000;clip-rule:nonzero;display:inline;overflow:visible;visibility:visible;opacity:1;isolation:auto;mix-blend-mode:normal;color-interpolation:sRGB;color-interpolation-filters:linearRGB;solid-color:#000000;solid-opacity:1;fill:#000000;fill-opacity:1;fill-rule:nonzero;stroke:none;stroke-width:1;stroke-linecap:round;stroke-linejoin:miter;stroke-miterlimit:4;stroke-dasharray:none;stroke-dashoffset:0;stroke-opacity:1;color-rendering:auto;image-rendering:auto;shape-rendering:auto;text-rendering:auto;enable-background:accumulate"
           d="M 110 0 C 100 0 100 10 100 10 L 100 55.289062 C 89.384112 45.784895 75.370149 40 60 40 C 26.862912 40 0 66.862875 0 100 C 0 133.13713 26.862912 160 60 160 C 93.137088 160 120 133.13713 120 100 L 120 10 C 120 10 120 0 110 0 z M 60 60 C 82.091387 60 100 77.908375 100 100 C 100 122.09137 82.091387 140 60 140 C 37.908613 140 20 122.09137 20 100 C 20 77.908375 37.908613 60 60 60 z "
           transform="matrix(0.8,0,0,0.8,-522.88721,1542.6045)"
           id="path4487" />
      </g>
      <path
         inkscape:connector-curvature="0"
         id="path4496"
         d="m -366.88721,1574.6045 c -26.50967,0 -48,21.4903 -48,48 0,26.5097 21.49033,48 48,48 26.50967,0 48,-21.4903 48,-48 0,-26.5097 -21.49033,-48 -48,-48 z m 0,16 c 17.67311,0 32,14.3267 32,32 0,17.6731 -14.32689,32 -32,32 -17.67311,0 -32,-14.3269 -32,-32 0,-17.6733 14.32689,-32 32,-32 z"
         style="color:#000000;clip-rule:nonzero;display:inline;overflow:visible;visibility:visible;opacity:1;isolation:auto;mix-blend-mode:normal;color-interpolation:sRGB;color-interpolation-filters:linearRGB;solid-color:#000000;solid-opacity:1;fill:#000000;fill-opacity:1;fill-rule:nonzero;stroke:none;stroke-width:1;stroke-linecap:round;stroke-linejoin:miter;stroke-miterlimit:4;stroke-dasharray:none;stroke-dashoffset:0;stroke-opacity:1;color-rendering:auto;image-rendering:auto;shape-rendering:auto;text-rendering:auto;enable-background:accumulate" />
      <path
         style="color:#000000;clip-rule:nonzero;display:inline;overflow:visible;visibility:visible;opacity:1;isolation:auto;mix-blend-mode:normal;color-interpolation:sRGB;color-interpolation-filters:linearRGB;solid-color:#000000;solid-opacity:1;fill:#000000;fill-opacity:1;fill-rule:nonzero;stroke:none;stroke-width:1;stroke-linecap:round;stroke-linejoin:miter;stroke-miterlimit:4;stroke-dasharray:none;stroke-dashoffset:0;stroke-opacity:1;color-rendering:auto;image-rendering:auto;shape-rendering:auto;text-rendering:auto;enable-background:accumulate"
         d="m -150.88721,1574.6045 c -26.50967,0 -48,21.4903 -48,48 0,26.5097 21.49033,48 48,48 26.50967,0 48,-21.4903 48,-48 0,-26.5097 -21.49033,-48 -48,-48 z m 0,16 c 17.67311,0 32,14.3267 32,32 0,17.6731 -14.32689,32 -32,32 -17.67311,0 -32,-14.3269 -32,-32 0,-17.6733 14.32689,-32 32,-32 z"
         id="path4502"
         inkscape:connector-curvature="0" />
      <g
         id="g4516"
         transform="translate(-16,0)"
         style="fill:#000000">
        <path
           style="color:#000000;clip-rule:nonzero;display:inline;overflow:visible;visibility:visible;opacity:1;isolation:auto;mix-blend-mode:normal;color-interpolation:sRGB;color-interpolation-filters:linearRGB;solid-color:#000000;solid-opacity:1;fill:#000000;fill-opacity:1;fill-rule:nonzero;stroke:none;stroke-width:1;stroke-linecap:round;stroke-linejoin:miter;stroke-miterlimit:4;stroke-dasharray:none;stroke-dashoffset:0;stroke-opacity:1;color-rendering:auto;image-rendering:auto;shape-rendering:auto;text-rendering:auto;enable-background:accumulate"
           d="m 580,0 c -40,0 -40,35 -40,35 0,0 0,35 40,35 l 40,0 c 20,0 20,15 20,15 0,0 0,15 -20,15 l -70,0 c -10,0 -10,10 -10,10 0,0 0,10 10,10 l 70,0 c 0,0 8.34485,-0.0119 17.41016,-3.3457 A 14.250187,14.250187 0 0 1 635.75,110 14.250187,14.250187 0 0 1 650,95.75 a 14.250187,14.250187 0 0 1 7.74414,2.302734 C 659.16617,94.35784 660,90.043919 660,85 660,50 620,50 620,50 l -40,0 c -20,0 -20,-15 -20,-15 0,0 0,-15 20,-15 l 10,0 c 0,0 10,0 10,-10 C 600,0 590,0 590,0 l -10,0 z"
           transform="matrix(0.8,0,0,0.8,-506.88721,1574.6045)"
           id="path4493"
           inkscape:connector-curvature="0" />
        <path
           style="color:#000000;clip-rule:nonzero;display:inline;overflow:visible;visibility:visible;opacity:1;isolation:auto;mix-blend-mode:normal;color-interpolation:sRGB;color-interpolation-filters:linearRGB;solid-color:#000000;solid-opacity:1;fill:#000000;fill-opacity:1;fill-rule:nonzero;stroke:none;stroke-width:4;stroke-linecap:round;stroke-linejoin:miter;stroke-miterlimit:4;stroke-dasharray:none;stroke-dashoffset:0;stroke-opacity:1;color-rendering:auto;image-rendering:auto;shape-rendering:auto;text-rendering:auto;enable-background:accumulate"
           d="m 21.112792,1662.6045 a 8,8 0 0 1 -8,8 8,8 0 0 1 -8,-8 8,8 0 0 1 8,-8 8,8 0 0 1 8,8 z"
           id="circle4425"
           inkscape:connector-curvature="0" />
      </g>
      <g
         id="g4508"
         transform="translate(-7.999998,0)"
         style="fill:#000000">
        <path
           style="color:#000000;clip-rule:nonzero;display:inline;overflow:visible;visibility:visible;opacity:1;isolation:auto;mix-blend-mode:normal;color-interpolation:sRGB;color-interpolation-filters:linearRGB;solid-color:#000000;solid-opacity:1;fill:#000000;fill-opacity:1;fill-rule:nonzero;stroke:none;stroke-width:1;stroke-linecap:round;stroke-linejoin:miter;stroke-miterlimit:4;stroke-dasharray:none;stroke-dashoffset:0;stroke-opacity:1;color-rendering:auto;image-rendering:auto;shape-rendering:auto;text-rendering:auto;enable-background:accumulate"
           d="M 380 0 C 370 0 370 10 370 10 L 370 55.289062 C 359.38411 45.784895 345.37015 40 330 40 C 296.86291 40 270 66.862875 270 100 C 270 133.13713 296.86291 160 330 160 C 363.13709 160 390 133.13713 390 100 L 390 10 C 390 10 390 0 380 0 z M 330 60 C 352.09139 60 370 77.908375 370 100 C 370 122.09137 352.09139 140 330 140 C 307.90861 140 290 122.09137 290 100 C 290 77.908375 307.90861 60 330 60 z "
           transform="matrix(0.8,0,0,0.8,-514.88721,1542.6045)"
           id="path4498" />
      </g>
      <g
         id="g4148"
         transform="translate(316,32)"
         style="fill:#000000" />
      <g
         id="g4183"
         transform="matrix(-1,0,0,-1,-77.77442,3245.209)"
         style="fill:#000000">
        <path
           style="color:#000000;clip-rule:nonzero;display:inline;overflow:visible;visibility:visible;opacity:1;isolation:auto;mix-blend-mode:normal;color-interpolation:sRGB;color-interpolation-filters:linearRGB;solid-color:#000000;solid-opacity:1;fill:#000000;fill-opacity:1;fill-rule:nonzero;stroke:none;stroke-width:1;stroke-linecap:round;stroke-linejoin:miter;stroke-miterlimit:4;stroke-dasharray:none;stroke-dashoffset:0;stroke-opacity:1;color-rendering:auto;image-rendering:auto;shape-rendering:auto;text-rendering:auto;enable-background:accumulate"
           d="m 820,40 c -10,0 -10,10 -10,10 l 0,100 c 0,0 0,10.00072 10,10.00586 10,0.005 9.83985,-9.99901 10,-10.00586 l 0,-50 c 0,-22.091391 17.90861,-40 40,-40 l 5,0 c 0,0 10,0 10,-10 0,-10 -10,-10 -10,-10 l -5,0 c -15.37015,0 -29.38411,5.784895 -40,15.289062 L 830,50 c 0,0 0,-10 -10,-10 z"
           id="path4185"
           inkscape:connector-curvature="0"
           sodipodi:nodetypes="scccccscscsccs"
           transform="matrix(-0.8,0,0,-0.8,445.11279,1702.6045)" />
      </g>
    </g>
  </g>
</svg>
