<?xml version="1.0" encoding="UTF-8" standalone="no"?>
<!-- Created with Inkscape (http://www.inkscape.org/) -->

<svg
   xmlns:dc="http://purl.org/dc/elements/1.1/"
   xmlns:cc="http://creativecommons.org/ns#"
   xmlns:rdf="http://www.w3.org/1999/02/22-rdf-syntax-ns#"
   xmlns:svg="http://www.w3.org/2000/svg"
   xmlns="http://www.w3.org/2000/svg"
   xmlns:sodipodi="http://sodipodi.sourceforge.net/DTD/sodipodi-0.dtd"
   xmlns:inkscape="http://www.inkscape.org/namespaces/inkscape"
   width="560"
   height="100"
   viewBox="0 0 560 100"
   id="svg3460"
   version="1.1"
   inkscape:version="0.91 r13725"
   sodipodi:docname="drawing.svg">
  <defs
     id="defs3462" />
  <sodipodi:namedview
     id="base"
     pagecolor="#ffffff"
     bordercolor="#666666"
     borderopacity="1.0"
     inkscape:pageopacity="0.0"
     inkscape:pageshadow="2"
     inkscape:zoom="2.8284271"
     inkscape:cx="656.43544"
     inkscape:cy="200.87514"
     inkscape:document-units="px"
     inkscape:current-layer="g4456"
     showgrid="true"
     units="px"
     inkscape:window-width="3791"
     inkscape:window-height="2136"
     inkscape:window-x="49"
     inkscape:window-y="24"
     inkscape:window-maximized="1"
     showborder="true"
     showguides="true"
     inkscape:guide-bbox="true"
     inkscape:showpageshadow="false">
    <inkscape:grid
       type="xygrid"
       id="grid4977" />
    <sodipodi:guide
       position="105,0"
       orientation="0,1"
       id="guide4999" />
    <sodipodi:guide
       position="475,85"
       orientation="0,1"
       id="guide5059" />
    <sodipodi:guide
       position="475,85"
       orientation="1,0"
       id="guide5061" />
    <sodipodi:guide
       position="475,55"
       orientation="0,1"
       id="guide5063" />
  </sodipodi:namedview>
  <metadata
     id="metadata3465">
    <rdf:RDF>
      <cc:Work
         rdf:about="">
        <dc:format>image/svg+xml</dc:format>
        <dc:type
           rdf:resource="http://purl.org/dc/dcmitype/StillImage" />
        <dc:title></dc:title>
      </cc:Work>
    </rdf:RDF>
  </metadata>
  <g
     inkscape:label="Layer 1"
     inkscape:groupmode="layer"
     id="layer1"
     transform="translate(0,-952.36216)">
    <g
       id="g4456"
       transform="matrix(1.25,0,0,1.25,653.60901,-1035.8935)">
      <path
         inkscape:connector-curvature="0"
         id="path4392"
         d="m -333.04847,1490.3537 0,8.5392 c 0,4.6964 -0.038,8.5785 -0.0857,8.6256 -0.0471,0.047 -0.6416,-0.3127 -1.32057,-0.8028 -3.72059,-2.6766 -8.65399,-4.2254 -13.53449,-4.2486 -2.37928,0 -3.79972,0.158 -6.08195,0.7302 -6.5455,1.6385 -12.46646,6.4714 -15.36204,12.538 -0.80097,1.6785 -1.71379,4.4691 -2.02007,6.1735 -0.88391,4.9189 -0.0985,10.3038 2.16154,14.8068 1.85804,3.7027 4.64433,6.8432 8.08632,9.1161 l 1.34706,0.8892 11.70701,0 11.707,0 0.90589,-0.5463 c 1.31374,-0.7913 3.16005,-2.2803 4.40276,-3.552 3.08094,-3.1527 5.22436,-7.1626 6.26765,-11.7235 0.33315,-1.4569 0.33416,-1.4674 0.38317,-21.0018 l 0.0481,-19.5436 -4.3055,0 -4.30651,0 z m -15.04862,20.818 c 1.37616,0 2.74238,0.1109 3.60595,0.3506 2.75442,0.7568 4.98629,2.0292 6.93479,3.9538 6.00124,5.9274 5.94291,15.4533 -0.13077,21.3791 -2.1763,2.1236 -4.92736,3.5069 -8.02736,4.0381 -7.41042,1.2704 -14.6075,-3.3066 -16.85943,-10.7203 -0.36882,-1.2143 -0.40674,-1.5703 -0.41858,-3.9016 -0.0134,-2.8643 0.16339,-3.8812 1.05233,-5.9984 0.99061,-2.3606 3.01368,-4.8756 5.14456,-6.3974 1.24241,-0.8872 3.4614,-1.9176 5.03356,-2.3375 0.90236,-0.242 2.28875,-0.3637 3.66488,-0.3664 z"
         style="fill:#000000" />
      <g
         transform="matrix(0.41765919,0,0,0.41765919,-53.236378,871.09939)"
         id="g4451">
        <path
           style="fill:#000000"
           d="m -160.65986,1595.1139 c -36.50087,-0.131 -37.86932,14.0088 -37.9116,25.5808 -0.1203,32.9237 61.37399,9.9654 61.35271,27.4185 -0.013,10.6643 -28.38075,8.6095 -61.19271,8.6431 -0.0325,4 0,13.8482 0,13.8482 l 46.76694,-2e-4 c 7.63983,0 28.83714,-5.025 28.88906,-24.5598 0.0819,-30.8159 -61.28948,-6.5243 -61.5568,-28.0754 -0.10167,-8.1965 11.39061,-8.8123 23.6524,-8.84 z"
           id="path4400"
           inkscape:connector-curvature="0"
           sodipodi:nodetypes="cssccssscc" />
        <circle
           r="11.95"
           cy="1662.1545"
           cx="-124.21"
           id="circle5001"
           style="color:#000000;clip-rule:nonzero;display:inline;overflow:visible;visibility:visible;opacity:1;isolation:auto;mix-blend-mode:normal;color-interpolation:sRGB;color-interpolation-filters:linearRGB;solid-color:#000000;solid-opacity:1;fill:#ffffff;fill-opacity:1;fill-rule:nonzero;stroke:none;stroke-width:4;stroke-linecap:round;stroke-linejoin:miter;stroke-miterlimit:4;stroke-dasharray:none;stroke-dashoffset:0;stroke-opacity:1;color-rendering:auto;image-rendering:auto;shape-rendering:auto;text-rendering:auto;enable-background:accumulate" />
        <circle
           style="color:#000000;clip-rule:nonzero;display:inline;overflow:visible;visibility:visible;opacity:1;isolation:auto;mix-blend-mode:normal;color-interpolation:sRGB;color-interpolation-filters:linearRGB;solid-color:#000000;solid-opacity:1;fill:#000000;fill-opacity:1;fill-rule:nonzero;stroke:none;stroke-width:4;stroke-linecap:round;stroke-linejoin:miter;stroke-miterlimit:4;stroke-dasharray:none;stroke-dashoffset:0;stroke-opacity:1;color-rendering:auto;image-rendering:auto;shape-rendering:auto;text-rendering:auto;enable-background:accumulate"
           id="circle4404"
           cx="-124.21"
           cy="1662.1545"
           r="8.4499998" />
      </g>
      <g
         id="g5033">
        <path
           id="path5022"
           transform="matrix(0.8,0,0,0.8,-522.88721,1590.6045)"
           d="M 50,0 A 50,50 0 0 0 0,50 50,50 0 0 0 50,100 50,50 0 0 0 100,50 50,50 0 0 0 50,0 Z m 0,15 A 35,35 0 0 1 85,50 35,35 0 0 1 50,85 35,35 0 0 1 15,50 35,35 0 0 1 50,15 Z"
           style="color:#000000;clip-rule:nonzero;display:inline;overflow:visible;visibility:visible;opacity:1;isolation:auto;mix-blend-mode:normal;color-interpolation:sRGB;color-interpolation-filters:linearRGB;solid-color:#000000;solid-opacity:1;fill:#000000;fill-opacity:1;fill-rule:nonzero;stroke:none;stroke-width:1;stroke-linecap:round;stroke-linejoin:miter;stroke-miterlimit:4;stroke-dasharray:none;stroke-dashoffset:0;stroke-opacity:1;color-rendering:auto;image-rendering:auto;shape-rendering:auto;text-rendering:auto;enable-background:accumulate"
           inkscape:connector-curvature="0" />
        <rect
           y="1562.6046"
           x="-454.88721"
           height="68"
           width="12"
           id="rect5028"
           style="color:#000000;clip-rule:nonzero;display:inline;overflow:visible;visibility:visible;opacity:1;isolation:auto;mix-blend-mode:normal;color-interpolation:sRGB;color-interpolation-filters:linearRGB;solid-color:#000000;solid-opacity:1;fill:#000000;fill-opacity:1;fill-rule:nonzero;stroke:none;stroke-width:1;stroke-linecap:round;stroke-linejoin:miter;stroke-miterlimit:4;stroke-dasharray:none;stroke-dashoffset:0;stroke-opacity:1;color-rendering:auto;image-rendering:auto;shape-rendering:auto;text-rendering:auto;enable-background:accumulate" />
      </g>
      <path
         id="path5031"
         d="m -390.88721,1590.6045 a 40,40 0 0 0 -40,40 40,40 0 0 0 40,40 40,40 0 0 0 40,-40 40,40 0 0 0 -40,-40 z m 0,12 a 28,28 0 0 1 28,28 28,28 0 0 1 -28,28 28,28 0 0 1 -28,-28 28,28 0 0 1 28,-28 z"
         style="color:#000000;clip-rule:nonzero;display:inline;overflow:visible;visibility:visible;opacity:1;isolation:auto;mix-blend-mode:normal;color-interpolation:sRGB;color-interpolation-filters:linearRGB;solid-color:#000000;solid-opacity:1;fill:#000000;fill-opacity:1;fill-rule:nonzero;stroke:none;stroke-width:1;stroke-linecap:round;stroke-linejoin:miter;stroke-miterlimit:4;stroke-dasharray:none;stroke-dashoffset:0;stroke-opacity:1;color-rendering:auto;image-rendering:auto;shape-rendering:auto;text-rendering:auto;enable-background:accumulate"
         inkscape:connector-curvature="0" />
      <g
         id="g5037"
         transform="translate(184,0)">
        <path
           style="color:#000000;clip-rule:nonzero;display:inline;overflow:visible;visibility:visible;opacity:1;isolation:auto;mix-blend-mode:normal;color-interpolation:sRGB;color-interpolation-filters:linearRGB;solid-color:#000000;solid-opacity:1;fill:#000000;fill-opacity:1;fill-rule:nonzero;stroke:none;stroke-width:1;stroke-linecap:round;stroke-linejoin:miter;stroke-miterlimit:4;stroke-dasharray:none;stroke-dashoffset:0;stroke-opacity:1;color-rendering:auto;image-rendering:auto;shape-rendering:auto;text-rendering:auto;enable-background:accumulate"
           d="M 50,0 A 50,50 0 0 0 0,50 50,50 0 0 0 50,100 50,50 0 0 0 100,50 50,50 0 0 0 50,0 Z m 0,15 A 35,35 0 0 1 85,50 35,35 0 0 1 50,85 35,35 0 0 1 15,50 35,35 0 0 1 50,15 Z"
           transform="matrix(0.8,0,0,0.8,-522.88721,1590.6045)"
           id="path5039"
           inkscape:connector-curvature="0" />
        <rect
           style="color:#000000;clip-rule:nonzero;display:inline;overflow:visible;visibility:visible;opacity:1;isolation:auto;mix-blend-mode:normal;color-interpolation:sRGB;color-interpolation-filters:linearRGB;solid-color:#000000;solid-opacity:1;fill:#000000;fill-opacity:1;fill-rule:nonzero;stroke:none;stroke-width:1;stroke-linecap:round;stroke-linejoin:miter;stroke-miterlimit:4;stroke-dasharray:none;stroke-dashoffset:0;stroke-opacity:1;color-rendering:auto;image-rendering:auto;shape-rendering:auto;text-rendering:auto;enable-background:accumulate"
           id="rect5041"
           width="12"
           height="68"
           x="-454.88721"
           y="1562.6046" />
      </g>
      <path
         inkscape:connector-curvature="0"
         style="color:#000000;clip-rule:nonzero;display:inline;overflow:visible;visibility:visible;opacity:1;isolation:auto;mix-blend-mode:normal;color-interpolation:sRGB;color-interpolation-filters:linearRGB;solid-color:#000000;solid-opacity:1;fill:#000000;fill-opacity:1;fill-rule:nonzero;stroke:none;stroke-width:1;stroke-linecap:round;stroke-linejoin:miter;stroke-miterlimit:4;stroke-dasharray:none;stroke-dashoffset:0;stroke-opacity:1;color-rendering:auto;image-rendering:auto;shape-rendering:auto;text-rendering:auto;enable-background:accumulate"
         d="m -206.88721,1590.6045 a 40,40 0 0 0 -40,40 40,40 0 0 0 40,40 40,40 0 0 0 40,-40 40,40 0 0 0 -40,-40 z m 0,12 a 28,28 0 0 1 28,28 28,28 0 0 1 -28,28 28,28 0 0 1 -28,-28 28,28 0 0 1 28,-28 z"
         id="path5043" />
      <path
         style="color:#000000;clip-rule:nonzero;display:inline;overflow:visible;visibility:visible;opacity:1;isolation:auto;mix-blend-mode:normal;color-interpolation:sRGB;color-interpolation-filters:linearRGB;solid-color:#000000;solid-opacity:1;fill:#000000;fill-opacity:1;fill-rule:nonzero;stroke:none;stroke-width:1;stroke-linecap:round;stroke-linejoin:miter;stroke-miterlimit:4;stroke-dasharray:none;stroke-dashoffset:0;stroke-opacity:1;color-rendering:auto;image-rendering:auto;shape-rendering:auto;text-rendering:auto;enable-background:accumulate"
         d="m 460,20.000035 0,20 c 0,20 20,20 20,20 l 65,0 L 545,85 l -85,0 0,15 100,0 0,-54.999965 -65,0 c -20,0 -20,-15 -20,-15 0,0 0,-15 20,-15.000035 l 15,0 0,-15 -30,3.5e-5 c -20,0 -20,20 -20,20 z"
         transform="matrix(0.8,0,0,0.8,-522.88721,1590.6045)"
         id="rect5045"
         inkscape:connector-curvature="0"
         sodipodi:nodetypes="cccccccccccccccc" />
    </g>
  </g>
</svg>
