<?xml version="1.0" encoding="UTF-8" standalone="no"?>
<svg
   xmlns:dc="http://purl.org/dc/elements/1.1/"
   xmlns:cc="http://creativecommons.org/ns#"
   xmlns:rdf="http://www.w3.org/1999/02/22-rdf-syntax-ns#"
   xmlns:svg="http://www.w3.org/2000/svg"
   xmlns="http://www.w3.org/2000/svg"
   xmlns:sodipodi="http://sodipodi.sourceforge.net/DTD/sodipodi-0.dtd"
   xmlns:inkscape="http://www.inkscape.org/namespaces/inkscape"
   version="1.1"
   x="0px"
   y="0px"
   viewBox="0 0 90 63.610019"
   enable-background="new 0 0 100 73.61"
   xml:space="preserve"
   id="svg2"
   inkscape:version="0.91 r13725"
   sodipodi:docname="193650.svg"
   width="90"
   height="63.61002"><metadata
     id="metadata20"><rdf:RDF><cc:Work
         rdf:about=""><dc:format>image/svg+xml</dc:format><dc:type
           rdf:resource="http://purl.org/dc/dcmitype/StillImage" /><dc:title></dc:title></cc:Work></rdf:RDF></metadata><defs
     id="defs18" /><sodipodi:namedview
     pagecolor="#ffffff"
     bordercolor="#666666"
     borderopacity="1"
     objecttolerance="10"
     gridtolerance="10"
     guidetolerance="10"
     inkscape:pageopacity="0"
     inkscape:pageshadow="2"
     inkscape:window-width="1456"
     inkscape:window-height="976"
     id="namedview16"
     showgrid="false"
     inkscape:zoom="6.4121722"
     inkscape:cx="41.420962"
     inkscape:cy="31.035605"
     inkscape:window-x="462"
     inkscape:window-y="195"
     inkscape:window-maximized="0"
     inkscape:current-layer="svg2"
     fit-margin-top="0"
     fit-margin-left="0"
     fit-margin-right="0"
     fit-margin-bottom="0" /><g
     id="g4148"
     transform="matrix(-1,0,0,1,95,-5.0000548)"
     style="fill:#1a1a1a;fill-opacity:1"><path
       style="fill:#1a1a1a;fill-opacity:1"
       id="path4"
       d="m 40.069,31.214 c 0.177,0 0.357,-0.016 0.537,-0.049 l 12.569,-2.285 2.003,5.008 -12.958,2.64 c -0.96,0.195 -1.785,0.805 -2.252,1.666 -0.468,0.86 -0.532,1.884 -0.174,2.796 l 6.242,15.917 c 0.513,1.308 1.765,2.106 3.089,2.106 0.403,0 0.812,-0.074 1.21,-0.229 1.707,-0.669 2.546,-2.594 1.877,-4.3 L 47.41,42.242 60.395,39.596 c 0.964,-0.196 1.792,-0.81 2.258,-1.676 0.468,-0.866 0.525,-1.894 0.161,-2.807 L 55.947,17.947 c -0.681,-1.702 -2.612,-2.526 -4.312,-1.848 -1.701,0.681 -2.528,2.611 -1.848,4.312 l 1.126,2.816 -11.375,2.069 c -1.621,0.294 -2.695,1.847 -2.4,3.468 0.262,1.441 1.517,2.45 2.931,2.45 z"
       inkscape:connector-curvature="0" /><path
       style="fill:#1a1a1a;fill-opacity:1"
       id="path6"
       d="M 68.784,24.798 68.923,26.183 94.819,21.998 95,16.996 c 0,0 -28.4,-0.936 -26.216,7.802 z"
       inkscape:connector-curvature="0" /><path
       style="fill:#1a1a1a;fill-opacity:1"
       id="path8"
       d="m 70.033,37.282 19.038,0 c 0,0 4.056,-0.624 5.305,-3.121 l 0.408,-11.208 -25.768,4.164 1.017,10.165 z"
       inkscape:connector-curvature="0" /><path
       style="fill:#1a1a1a;fill-opacity:1"
       id="path10"
       d="m 89.877,52.818 -4.602,1.048 c -0.078,-0.675 -0.203,-1.349 -0.388,-2.015 0.753,0.056 1.437,0.192 2.035,0.417 l 0.945,-0.545 c -0.346,-1.618 -0.94,-3.21 -1.812,-4.72 -4.48,-7.763 -14.406,-10.422 -22.167,-5.94 -6.702,3.869 -9.59,11.795 -7.371,18.884 l -18.196,0 -3.145,-18.554 c -0.095,-0.745 -1.01,-6.751 -5.702,-9.667 0.414,-0.882 1.617,-2.128 5.12,-1.824 1.088,0.087 2.06,-0.716 2.156,-1.811 0.095,-1.095 -0.715,-2.06 -1.811,-2.155 -3.131,-0.273 -5.603,0.355 -7.356,1.866 -0.949,0.817 -1.494,1.738 -1.821,2.53 -0.008,-0.002 -0.015,-0.004 -0.022,-0.005 -0.111,-0.019 -0.223,-0.028 -0.336,-0.028 l -6.866,0 c -1.099,0 -1.99,0.891 -1.99,1.991 0,1.099 0.891,1.99 1.99,1.99 l 6.687,0 c 5.145,1.002 5.972,7.362 6.004,7.628 0.004,0.037 0.009,0.072 0.015,0.108 l 3.434,20.255 c 0.162,0.957 0.992,1.658 1.962,1.658 l 21.749,0 c 0.788,1.217 1.709,2.301 2.741,3.232 l 1.282,-0.739 c 0.146,-0.471 0.36,-0.963 0.625,-1.466 4.141,3.942 10.541,4.887 15.734,1.887 3.419,-1.975 5.609,-5.257 6.329,-8.853 l 5.66,-1.29 c 1.072,-0.244 1.744,-1.311 1.5,-2.383 -0.244,-1.072 -1.317,-1.744 -2.383,-1.499 z m -16.45,2.558 c 2.73,-1.576 5.232,-2.591 7.421,-3.119 0.295,0.817 0.463,1.657 0.52,2.499 L 70.54,57.221 c 0.908,-0.637 1.868,-1.257 2.887,-1.845 z m 3.354,8.018 c -3.517,2.031 -7.82,1.471 -10.718,-1.07 l 14.588,-3.321 c -0.755,1.785 -2.066,3.349 -3.87,4.391 z"
       inkscape:connector-curvature="0" /><path
       style="fill:#1a1a1a;fill-opacity:1"
       id="path12"
       d="M 18.226,42.158 C 10.933,42.158 5,48.09 5,55.383 c 0,7.293 5.933,13.226 13.226,13.226 7.292,0 13.226,-5.933 13.226,-13.226 0,-7.293 -5.934,-13.225 -13.226,-13.225 z m 0,22.47 c -5.098,0 -9.245,-4.147 -9.245,-9.245 0,-5.098 4.147,-9.245 9.245,-9.245 5.097,0 9.245,4.147 9.245,9.245 0,5.098 -4.148,9.245 -9.245,9.245 z"
       inkscape:connector-curvature="0" /><path
       style="fill:#1a1a1a;fill-opacity:1"
       id="path14"
       d="m 39.426,10.577 c -0.583,2.977 0.885,5.779 3.271,6.246 0.328,0.064 0.656,0.077 0.98,0.05 -0.012,0.013 -0.021,0.022 -0.021,0.022 8.45,-1.266 6.407,-1.484 7.043,-4.738 C 51.336,8.904 49.215,5.75 45.961,5.113 42.707,4.476 39.553,6.598 38.917,9.851 l 0.654,0.128 c -0.055,0.195 -0.106,0.393 -0.145,0.598 z m 1.293,0.253 c 0.04,-0.206 0.094,-0.403 0.154,-0.596 l 3.936,0.77 c 1.932,0.606 1.407,2.309 0.535,3.729 -0.698,0.644 -1.551,0.962 -2.394,0.797 -1.673,-0.328 -2.674,-2.436 -2.231,-4.7 z"
       inkscape:connector-curvature="0" /></g></svg>