<?xml version="1.0" encoding="UTF-8" standalone="no"?>
<!-- Created with Inkscape (http://www.inkscape.org/) -->

<svg
   xmlns:dc="http://purl.org/dc/elements/1.1/"
   xmlns:cc="http://creativecommons.org/ns#"
   xmlns:rdf="http://www.w3.org/1999/02/22-rdf-syntax-ns#"
   xmlns:svg="http://www.w3.org/2000/svg"
   xmlns="http://www.w3.org/2000/svg"
   xmlns:sodipodi="http://sodipodi.sourceforge.net/DTD/sodipodi-0.dtd"
   xmlns:inkscape="http://www.inkscape.org/namespaces/inkscape"
   width="100"
   height="100"
   viewBox="0 0 100 100"
   id="svg3460"
   version="1.1"
   inkscape:version="0.91 r13725"
   sodipodi:docname="favicon.svg">
  <defs
     id="defs3462" />
  <sodipodi:namedview
     id="base"
     pagecolor="#ffffff"
     bordercolor="#666666"
     borderopacity="1.0"
     inkscape:pageopacity="0.0"
     inkscape:pageshadow="2"
     inkscape:zoom="2.8"
     inkscape:cx="50.158496"
     inkscape:cy="16.019017"
     inkscape:document-units="px"
     inkscape:current-layer="g5390"
     showgrid="false"
     units="px"
     inkscape:window-width="3779"
     inkscape:window-height="2136"
     inkscape:window-x="61"
     inkscape:window-y="24"
     inkscape:window-maximized="1" />
  <metadata
     id="metadata3465">
    <rdf:RDF>
      <cc:Work
         rdf:about="">
        <dc:format>image/svg+xml</dc:format>
        <dc:type
           rdf:resource="http://purl.org/dc/dcmitype/StillImage" />
        <dc:title></dc:title>
      </cc:Work>
    </rdf:RDF>
  </metadata>
  <g
     inkscape:label="Layer 1"
     inkscape:groupmode="layer"
     id="layer1"
     transform="translate(0,-952.36216)">
    <g
       id="g5390"
       transform="matrix(1.3518849,0,0,1.3518849,-240.40155,954.55536)"
       style="fill:#1a1a1a;fill-opacity:1">
      <g
         transform="matrix(2.0463307,0,0,2.0463307,73.585952,69.497276)"
         id="g5386"
         style="fill:#c0281c;fill-opacity:1">
        <path
           sodipodi:nodetypes="cccccccccc"
           inkscape:connector-curvature="0"
           id="path5371"
           d="m 68.927734,0.4882 c -7.272848,-9.3e-4 -13.168123,-5.89708 -13.167968,-13.16993 -1.54e-4,-7.27285 5.895121,-13.169001 13.167968,-13.169921 7.27361,-1.5e-4 13.170076,5.896311 13.169922,13.169921 1.55e-4,7.27361 -5.896311,13.17008 -13.169922,13.16993 z m 0,-4.18954 c 4.06828,6.2e-4 7.366729,-3.29696 7.367188,-7.36524 6.13e-4,-4.06904 -3.29815,-7.3678 -7.367188,-7.36718 -4.068275,4.6e-4 -7.365847,3.2989 -7.365234,7.36718 4.59e-4,4.06751 3.297717,7.36478 7.365234,7.36524 z"
           style="color:#000000;clip-rule:nonzero;display:inline;overflow:visible;visibility:visible;opacity:1;isolation:auto;mix-blend-mode:normal;color-interpolation:sRGB;color-interpolation-filters:linearRGB;solid-color:#000000;solid-opacity:1;fill:#c0281c;fill-opacity:1;fill-rule:nonzero;stroke:none;stroke-width:0.40000001;stroke-linecap:round;stroke-linejoin:round;stroke-miterlimit:4;stroke-dasharray:none;stroke-dashoffset:0;stroke-opacity:1;color-rendering:auto;image-rendering:auto;shape-rendering:auto;text-rendering:auto;enable-background:accumulate" />
        <path
           style="color:#000000;clip-rule:nonzero;display:inline;overflow:visible;visibility:visible;opacity:1;isolation:auto;mix-blend-mode:normal;color-interpolation:sRGB;color-interpolation-filters:linearRGB;solid-color:#000000;solid-opacity:1;fill:#c0281c;fill-opacity:1;fill-rule:nonzero;stroke:none;stroke-width:0.40000001;stroke-linecap:round;stroke-linejoin:round;stroke-miterlimit:4;stroke-dasharray:none;stroke-dashoffset:0;stroke-opacity:1;color-rendering:auto;image-rendering:auto;shape-rendering:auto;text-rendering:auto;enable-background:accumulate"
           d="m 78.280896,-33.849578 3.590629,0 c 0.220272,0 0.397603,0.177331 0.397603,0.397603 l 0,30.622535 c 0,0.22027 -0.177331,0.3976 -0.397603,0.3976 l -5.590629,0 c -0.659256,-0.40607 1.602397,-1.15512 1.602397,-1.94829 l 0,-29.071845 c 0,-0.220272 0.177331,-0.397603 0.397603,-0.397603 z"
           id="rect5375"
           inkscape:connector-curvature="0"
           sodipodi:nodetypes="sssssccss" />
      </g>
    </g>
  </g>
</svg>
